<svg  xmlns="http://www.w3.org/2000/svg">
    <symbol id="message" width="36" height="36" viewBox="0 0 36 36">
        <path d="M33 8.25H13.5c-1.65 0-3 1.35-3 3v13.5a3 3 0 0 0 3 3H33c1.665 0 3-1.335 3-3v-13.5a3 3 0 0 0-3-3m0 16.5H13.5V13.755l9.75 4.995L33 13.755zm-9.75-8.535L13.5 11.25H33zM7.5 24.75c0 .255.045.495.075.75H1.5C.672 25.5 0 24.825 0 24s.672-1.5 1.5-1.5h6zm-3-14.25h3.075c-.03.255-.075.495-.075.75v2.25h-3c-.825 0-1.5-.675-1.5-1.5s.675-1.5 1.5-1.5m-3 7.5c0-.825.675-1.5 1.5-1.5h4.5v3H3c-.825 0-1.5-.675-1.5-1.5" fill="#fff"/>
    </symbol>

    <symbol id="github" width="800" height="800" viewBox="0 0 24 24">
        <path  fill="#ffffff" d="M12 2.247a10 10 0 0 0-3.162 19.487c.5.088.687-.212.687-.475 0-.237-.012-1.025-.012-1.862-2.513.462-3.163-.613-3.363-1.175a3.64 3.64 0 0 0-1.025-1.413c-.35-.187-.85-.65-.013-.662a2 2 0 0 1 1.538 1.025 2.137 2.137 0 0 0 2.912.825 2.1 2.1 0 0 1 .638-1.338c-2.225-.25-4.55-1.112-4.55-4.937a3.9 3.9 0 0 1 1.025-2.688 3.6 3.6 0 0 1 .1-2.65s.837-.262 2.75 1.025a9.43 9.43 0 0 1 5 0c1.912-1.3 2.75-1.025 2.75-1.025a3.6 3.6 0 0 1 .1 2.65 3.87 3.87 0 0 1 1.025 2.688c0 3.837-2.338 4.687-4.562 4.937a2.37 2.37 0 0 1 .674 1.85c0 1.338-.012 2.413-.012 2.75 0 .263.187.575.687.475A10.005 10.005 0 0 0 12 2.247"/>
    </symbol>

    <symbol id="linkedin" width="800" height="800" viewBox="0 0 24 24">
        <path d="M20.47 2H3.53a1.45 1.45 0 0 0-1.47 1.43v17.14A1.45 1.45 0 0 0 3.53 22h16.94a1.45 1.45 0 0 0 1.47-1.43V3.43A1.45 1.45 0 0 0 20.47 2M8.09 18.74h-3v-9h3ZM6.59 8.48a1.56 1.56 0 1 1 0-3.12 1.57 1.57 0 1 1 0 3.12m12.32 10.26h-3v-4.83c0-1.21-.43-2-1.52-2A1.65 1.65 0 0 0 12.85 13a2 2 0 0 0-.1.73v5h-3v-9h3V11a3 3 0 0 1 2.71-1.5c2 0 3.45 1.29 3.45 4.06Z"/>
    </symbol>
</svg>